<?xml version="1.0" encoding="utf-8" standalone="no"?>
<!DOCTYPE svg PUBLIC "-//W3C//DTD SVG 1.1//EN"
  "http://www.w3.org/Graphics/SVG/1.1/DTD/svg11.dtd">
<svg xmlns:xlink="http://www.w3.org/1999/xlink" width="97.2pt" height="23.04pt" viewBox="0 0 97.2 23.04" xmlns="http://www.w3.org/2000/svg" version="1.1">
 <metadata>
  <rdf:RDF xmlns:dc="http://purl.org/dc/elements/1.1/" xmlns:cc="http://creativecommons.org/ns#" xmlns:rdf="http://www.w3.org/1999/02/22-rdf-syntax-ns#">
   <cc:Work>
    <dc:type rdf:resource="http://purl.org/dc/dcmitype/StillImage"/>
    <dc:date>2026-09-30T10:37:44.382120</dc:date>
    <dc:format>image/svg+xml</dc:format>
    <dc:creator>
     <cc:Agent>
      <dc:title>Matplotlib v3.11.2, https://matplotlib.org/</dc:title>
     </cc:Agent>
    </dc:creator>
   </cc:Work>
  </rdf:RDF>
 </metadata>
 <defs>
  <style type="text/css">*{stroke-linejoin: round; stroke-linecap: butt}</style>
 </defs>
 <g id="figure_1">
  <g id="patch_1">
   <path d="M 0 23.04 
L 97.2 23.04 
L 97.2 0 
L 0 0 
L 0 23.04 
z
" style="fill: none"/>
  </g>
  <g id="axes_1">
   <g id="line2d_1">
    <path d="M 1.62 3.843837 
L 4.86 2.658462 
L 8.1 5.84912 
L 11.34 3.845394 
L 14.58 5.640389 
L 17.82 4.463685 
L 21.06 4.788195 
L 24.3 4.123427 
L 27.54 7.429076 
L 30.78 8.682983 
L 34.02 11.543632 
L 37.26 8.941326 
L 40.5 7.752008 
L 43.74 7.170752 
L 46.98 8.387625 
L 50.22 11.456198 
L 53.46 13.841909 
L 56.7 12.818788 
L 59.94 13.740302 
L 63.18 15.469129 
L 66.42 16.373318 
L 69.66 15.127314 
L 72.9 16.248099 
L 76.14 15.0698 
L 79.38 13.923036 
L 82.62 17.960389 
L 85.86 18.203751 
L 89.1 18.047804 
L 92.34 19.594705 
L 95.58 20.381538 
" clip-path="url(#pe4d0b062a4)" style="fill: none; stroke: #46586b; stroke-width: 1.1; stroke-linecap: round"/>
   </g>
   <g id="line2d_2">
    <defs>
     <path id="m281139d968" d="M 0 1.2 
C 0.318244 1.2 0.623496 1.07356 0.848528 0.848528 
C 1.07356 0.623496 1.2 0.318244 1.2 0 
C 1.2 -0.318244 1.07356 -0.623496 0.848528 -0.848528 
C 0.623496 -1.07356 0.318244 -1.2 0 -1.2 
C -0.318244 -1.2 -0.623496 -1.07356 -0.848528 -0.848528 
C -1.07356 -0.623496 -1.2 -0.318244 -1.2 0 
C -1.2 0.318244 -1.07356 0.623496 -0.848528 0.848528 
C -0.623496 1.07356 -0.318244 1.2 0 1.2 
z
" style="stroke: #46586b"/>
    </defs>
    <g clip-path="url(#pe4d0b062a4)">
     <use xlink:href="#m281139d968" x="95.58" y="20.381538" style="fill: #46586b; stroke: #46586b"/>
    </g>
   </g>
  </g>
 </g>
 <defs>
  <clipPath id="pe4d0b062a4">
   <rect x="0" y="0" width="97.2" height="23.04"/>
  </clipPath>
 </defs>
</svg>
