<?xml version="1.0" encoding="utf-8" standalone="no"?>
<!DOCTYPE svg PUBLIC "-//W3C//DTD SVG 1.1//EN"
  "http://www.w3.org/Graphics/SVG/1.1/DTD/svg11.dtd">
<svg xmlns:xlink="http://www.w3.org/1999/xlink" width="97.2pt" height="23.04pt" viewBox="0 0 97.2 23.04" xmlns="http://www.w3.org/2000/svg" version="1.1">
 <metadata>
  <rdf:RDF xmlns:dc="http://purl.org/dc/elements/1.1/" xmlns:cc="http://creativecommons.org/ns#" xmlns:rdf="http://www.w3.org/1999/02/22-rdf-syntax-ns#">
   <cc:Work>
    <dc:type rdf:resource="http://purl.org/dc/dcmitype/StillImage"/>
    <dc:date>2026-09-21T10:39:19.477794</dc:date>
    <dc:format>image/svg+xml</dc:format>
    <dc:creator>
     <cc:Agent>
      <dc:title>Matplotlib v3.11.2, https://matplotlib.org/</dc:title>
     </cc:Agent>
    </dc:creator>
   </cc:Work>
  </rdf:RDF>
 </metadata>
 <defs>
  <style type="text/css">*{stroke-linejoin: round; stroke-linecap: butt}</style>
 </defs>
 <g id="figure_1">
  <g id="patch_1">
   <path d="M 0 23.04 
L 97.2 23.04 
L 97.2 0 
L 0 0 
L 0 23.04 
z
" style="fill: none"/>
  </g>
  <g id="axes_1">
   <g id="line2d_1">
    <path d="M 1.62 19.926931 
L 4.86 18.712807 
L 8.1 17.492896 
L 11.34 16.002552 
L 14.58 18.609214 
L 17.82 17.642512 
L 21.06 15.49043 
L 24.3 18.471118 
L 27.54 11.370384 
L 30.78 9.822498 
L 34.02 3.619404 
L 37.26 2.658462 
L 40.5 2.813809 
L 43.74 5.109748 
L 46.98 4.44801 
L 50.22 12.020603 
L 53.46 14.725098 
L 56.7 19.506882 
L 59.94 18.453866 
L 63.18 11.23802 
L 66.42 14.79992 
L 69.66 16.865689 
L 72.9 15.593995 
L 76.14 18.557431 
L 79.38 18.459598 
L 82.62 19.282472 
L 85.86 20.381538 
L 89.1 17.233955 
L 92.34 16.531926 
L 95.58 15.081873 
" clip-path="url(#p75ab2471a1)" style="fill: none; stroke: #46586b; stroke-width: 1.1; stroke-linecap: round"/>
   </g>
   <g id="line2d_2">
    <defs>
     <path id="m4f45c23f3d" d="M 0 1.2 
C 0.318244 1.2 0.623496 1.07356 0.848528 0.848528 
C 1.07356 0.623496 1.2 0.318244 1.2 0 
C 1.2 -0.318244 1.07356 -0.623496 0.848528 -0.848528 
C 0.623496 -1.07356 0.318244 -1.2 0 -1.2 
C -0.318244 -1.2 -0.623496 -1.07356 -0.848528 -0.848528 
C -1.07356 -0.623496 -1.2 -0.318244 -1.2 0 
C -1.2 0.318244 -1.07356 0.623496 -0.848528 0.848528 
C -0.623496 1.07356 -0.318244 1.2 0 1.2 
z
" style="stroke: #46586b"/>
    </defs>
    <g clip-path="url(#p75ab2471a1)">
     <use xlink:href="#m4f45c23f3d" x="95.58" y="15.081873" style="fill: #46586b; stroke: #46586b"/>
    </g>
   </g>
  </g>
 </g>
 <defs>
  <clipPath id="p75ab2471a1">
   <rect x="0" y="0" width="97.2" height="23.04"/>
  </clipPath>
 </defs>
</svg>
