<?xml version="1.0" encoding="utf-8" standalone="no"?>
<!DOCTYPE svg PUBLIC "-//W3C//DTD SVG 1.1//EN"
  "http://www.w3.org/Graphics/SVG/1.1/DTD/svg11.dtd">
<svg xmlns:xlink="http://www.w3.org/1999/xlink" width="97.2pt" height="23.04pt" viewBox="0 0 97.2 23.04" xmlns="http://www.w3.org/2000/svg" version="1.1">
 <metadata>
  <rdf:RDF xmlns:dc="http://purl.org/dc/elements/1.1/" xmlns:cc="http://creativecommons.org/ns#" xmlns:rdf="http://www.w3.org/1999/02/22-rdf-syntax-ns#">
   <cc:Work>
    <dc:type rdf:resource="http://purl.org/dc/dcmitype/StillImage"/>
    <dc:date>2026-08-24T08:46:44.226746</dc:date>
    <dc:format>image/svg+xml</dc:format>
    <dc:creator>
     <cc:Agent>
      <dc:title>Matplotlib v3.9.4, https://matplotlib.org/</dc:title>
     </cc:Agent>
    </dc:creator>
   </cc:Work>
  </rdf:RDF>
 </metadata>
 <defs>
  <style type="text/css">*{stroke-linejoin: round; stroke-linecap: butt}</style>
 </defs>
 <g id="figure_1">
  <g id="patch_1">
   <path d="M 0 23.04 
L 97.2 23.04 
L 97.2 0 
L 0 0 
L 0 23.04 
z
" style="fill: none"/>
  </g>
  <g id="axes_1">
   <g id="line2d_1">
    <path d="M 1.62 20.381538 
L 4.86 18.495904 
L 8.1 16.802317 
L 11.34 17.726269 
L 14.58 17.68494 
L 17.82 16.13282 
L 21.06 14.338788 
L 24.3 13.352328 
L 27.54 13.226694 
L 30.78 11.357303 
L 34.02 9.452546 
L 37.26 8.23682 
L 40.5 8.059678 
L 43.74 8.827565 
L 46.98 7.845217 
L 50.22 5.892139 
L 53.46 7.41979 
L 56.7 8.371809 
L 59.94 7.640626 
L 63.18 6.211363 
L 66.42 5.077679 
L 69.66 5.157768 
L 72.9 6.297004 
L 76.14 5.161469 
L 79.38 4.398723 
L 82.62 3.951501 
L 85.86 4.896117 
L 89.1 3.82926 
L 92.34 2.658462 
L 95.58 4.124118 
" clip-path="url(#pdea8464e07)" style="fill: none; stroke: #46586b; stroke-width: 1.1; stroke-linecap: round"/>
   </g>
   <g id="line2d_2">
    <defs>
     <path id="m7b48671ad0" d="M 0 1.2 
C 0.318244 1.2 0.623496 1.07356 0.848528 0.848528 
C 1.07356 0.623496 1.2 0.318244 1.2 0 
C 1.2 -0.318244 1.07356 -0.623496 0.848528 -0.848528 
C 0.623496 -1.07356 0.318244 -1.2 0 -1.2 
C -0.318244 -1.2 -0.623496 -1.07356 -0.848528 -0.848528 
C -1.07356 -0.623496 -1.2 -0.318244 -1.2 0 
C -1.2 0.318244 -1.07356 0.623496 -0.848528 0.848528 
C -0.623496 1.07356 -0.318244 1.2 0 1.2 
z
" style="stroke: #46586b"/>
    </defs>
    <g clip-path="url(#pdea8464e07)">
     <use xlink:href="#m7b48671ad0" x="95.58" y="4.124118" style="fill: #46586b; stroke: #46586b"/>
    </g>
   </g>
  </g>
 </g>
 <defs>
  <clipPath id="pdea8464e07">
   <rect x="0" y="0" width="97.2" height="23.04"/>
  </clipPath>
 </defs>
</svg>
