<?xml version="1.0" encoding="utf-8" standalone="no"?>
<!DOCTYPE svg PUBLIC "-//W3C//DTD SVG 1.1//EN"
  "http://www.w3.org/Graphics/SVG/1.1/DTD/svg11.dtd">
<svg xmlns:xlink="http://www.w3.org/1999/xlink" width="97.2pt" height="23.04pt" viewBox="0 0 97.2 23.04" xmlns="http://www.w3.org/2000/svg" version="1.1">
 <metadata>
  <rdf:RDF xmlns:dc="http://purl.org/dc/elements/1.1/" xmlns:cc="http://creativecommons.org/ns#" xmlns:rdf="http://www.w3.org/1999/02/22-rdf-syntax-ns#">
   <cc:Work>
    <dc:type rdf:resource="http://purl.org/dc/dcmitype/StillImage"/>
    <dc:date>2026-08-24T08:46:44.197809</dc:date>
    <dc:format>image/svg+xml</dc:format>
    <dc:creator>
     <cc:Agent>
      <dc:title>Matplotlib v3.9.4, https://matplotlib.org/</dc:title>
     </cc:Agent>
    </dc:creator>
   </cc:Work>
  </rdf:RDF>
 </metadata>
 <defs>
  <style type="text/css">*{stroke-linejoin: round; stroke-linecap: butt}</style>
 </defs>
 <g id="figure_1">
  <g id="patch_1">
   <path d="M 0 23.04 
L 97.2 23.04 
L 97.2 0 
L 0 0 
L 0 23.04 
z
" style="fill: none"/>
  </g>
  <g id="axes_1">
   <g id="line2d_1">
    <path d="M 1.62 19.273846 
L 4.86 14.843077 
L 8.1 18.166154 
L 11.34 19.273846 
L 14.58 15.950769 
L 17.82 20.381538 
L 21.06 15.950769 
L 24.3 13.735385 
L 27.54 11.52 
L 30.78 7.089231 
L 34.02 7.089231 
L 37.26 5.981538 
L 40.5 9.304615 
L 43.74 9.304615 
L 46.98 9.304615 
L 50.22 2.658462 
L 53.46 7.089231 
L 56.7 10.412308 
L 59.94 9.304615 
L 63.18 7.089231 
L 66.42 10.412308 
L 69.66 7.089231 
L 72.9 7.089231 
L 76.14 8.196923 
L 79.38 11.52 
L 82.62 9.304615 
L 85.86 5.981538 
L 89.1 9.304615 
L 92.34 15.950769 
L 95.58 15.950769 
" clip-path="url(#p15f7986b15)" style="fill: none; stroke: #46586b; stroke-width: 1.1; stroke-linecap: round"/>
   </g>
   <g id="line2d_2">
    <defs>
     <path id="m393874d936" d="M 0 1.2 
C 0.318244 1.2 0.623496 1.07356 0.848528 0.848528 
C 1.07356 0.623496 1.2 0.318244 1.2 0 
C 1.2 -0.318244 1.07356 -0.623496 0.848528 -0.848528 
C 0.623496 -1.07356 0.318244 -1.2 0 -1.2 
C -0.318244 -1.2 -0.623496 -1.07356 -0.848528 -0.848528 
C -1.07356 -0.623496 -1.2 -0.318244 -1.2 0 
C -1.2 0.318244 -1.07356 0.623496 -0.848528 0.848528 
C -0.623496 1.07356 -0.318244 1.2 0 1.2 
z
" style="stroke: #46586b"/>
    </defs>
    <g clip-path="url(#p15f7986b15)">
     <use xlink:href="#m393874d936" x="95.58" y="15.950769" style="fill: #46586b; stroke: #46586b"/>
    </g>
   </g>
  </g>
 </g>
 <defs>
  <clipPath id="p15f7986b15">
   <rect x="0" y="0" width="97.2" height="23.04"/>
  </clipPath>
 </defs>
</svg>
