<?xml version="1.0" encoding="utf-8" standalone="no"?>
<!DOCTYPE svg PUBLIC "-//W3C//DTD SVG 1.1//EN"
  "http://www.w3.org/Graphics/SVG/1.1/DTD/svg11.dtd">
<svg xmlns:xlink="http://www.w3.org/1999/xlink" width="97.2pt" height="23.04pt" viewBox="0 0 97.2 23.04" xmlns="http://www.w3.org/2000/svg" version="1.1">
 <metadata>
  <rdf:RDF xmlns:dc="http://purl.org/dc/elements/1.1/" xmlns:cc="http://creativecommons.org/ns#" xmlns:rdf="http://www.w3.org/1999/02/22-rdf-syntax-ns#">
   <cc:Work>
    <dc:type rdf:resource="http://purl.org/dc/dcmitype/StillImage"/>
    <dc:date>2026-09-25T10:38:54.273108</dc:date>
    <dc:format>image/svg+xml</dc:format>
    <dc:creator>
     <cc:Agent>
      <dc:title>Matplotlib v3.11.2, https://matplotlib.org/</dc:title>
     </cc:Agent>
    </dc:creator>
   </cc:Work>
  </rdf:RDF>
 </metadata>
 <defs>
  <style type="text/css">*{stroke-linejoin: round; stroke-linecap: butt}</style>
 </defs>
 <g id="figure_1">
  <g id="patch_1">
   <path d="M 0 23.04 
L 97.2 23.04 
L 97.2 0 
L 0 0 
L 0 23.04 
z
" style="fill: none"/>
  </g>
  <g id="axes_1">
   <g id="line2d_1">
    <path d="M 1.62 16.989951 
L 4.86 16.121385 
L 8.1 14.187774 
L 11.34 16.865874 
L 14.58 10.485981 
L 17.82 9.09523 
L 21.06 3.521852 
L 24.3 2.658462 
L 27.54 2.798039 
L 30.78 4.860902 
L 34.02 4.266341 
L 37.26 11.070192 
L 40.5 13.500136 
L 43.74 17.796491 
L 46.98 16.850373 
L 50.22 10.367054 
L 53.46 13.567363 
L 56.7 15.423422 
L 59.94 14.280826 
L 63.18 16.943425 
L 66.42 16.855523 
L 69.66 17.594862 
L 72.9 18.582355 
L 76.14 15.754303 
L 79.38 15.123541 
L 82.62 13.820692 
L 85.86 15.940432 
L 89.1 16.328189 
L 92.34 19.326844 
L 95.58 20.381538 
" clip-path="url(#p1b4178aa90)" style="fill: none; stroke: #46586b; stroke-width: 1.1; stroke-linecap: round"/>
   </g>
   <g id="line2d_2">
    <defs>
     <path id="m6c8ef44aa9" d="M 0 1.2 
C 0.318244 1.2 0.623496 1.07356 0.848528 0.848528 
C 1.07356 0.623496 1.2 0.318244 1.2 0 
C 1.2 -0.318244 1.07356 -0.623496 0.848528 -0.848528 
C 0.623496 -1.07356 0.318244 -1.2 0 -1.2 
C -0.318244 -1.2 -0.623496 -1.07356 -0.848528 -0.848528 
C -1.07356 -0.623496 -1.2 -0.318244 -1.2 0 
C -1.2 0.318244 -1.07356 0.623496 -0.848528 0.848528 
C -0.623496 1.07356 -0.318244 1.2 0 1.2 
z
" style="stroke: #46586b"/>
    </defs>
    <g clip-path="url(#p1b4178aa90)">
     <use xlink:href="#m6c8ef44aa9" x="95.58" y="20.381538" style="fill: #46586b; stroke: #46586b"/>
    </g>
   </g>
  </g>
 </g>
 <defs>
  <clipPath id="p1b4178aa90">
   <rect x="0" y="0" width="97.2" height="23.04"/>
  </clipPath>
 </defs>
</svg>
