<?xml version="1.0" encoding="utf-8" standalone="no"?>
<!DOCTYPE svg PUBLIC "-//W3C//DTD SVG 1.1//EN"
  "http://www.w3.org/Graphics/SVG/1.1/DTD/svg11.dtd">
<svg xmlns:xlink="http://www.w3.org/1999/xlink" width="97.2pt" height="23.04pt" viewBox="0 0 97.2 23.04" xmlns="http://www.w3.org/2000/svg" version="1.1">
 <metadata>
  <rdf:RDF xmlns:dc="http://purl.org/dc/elements/1.1/" xmlns:cc="http://creativecommons.org/ns#" xmlns:rdf="http://www.w3.org/1999/02/22-rdf-syntax-ns#">
   <cc:Work>
    <dc:type rdf:resource="http://purl.org/dc/dcmitype/StillImage"/>
    <dc:date>2026-08-28T10:37:31.367142</dc:date>
    <dc:format>image/svg+xml</dc:format>
    <dc:creator>
     <cc:Agent>
      <dc:title>Matplotlib v3.11.1, https://matplotlib.org/</dc:title>
     </cc:Agent>
    </dc:creator>
   </cc:Work>
  </rdf:RDF>
 </metadata>
 <defs>
  <style type="text/css">*{stroke-linejoin: round; stroke-linecap: butt}</style>
 </defs>
 <g id="figure_1">
  <g id="patch_1">
   <path d="M 0 23.04 
L 97.2 23.04 
L 97.2 0 
L 0 0 
L 0 23.04 
z
" style="fill: none"/>
  </g>
  <g id="axes_1">
   <g id="line2d_1">
    <path d="M 1.62 12.788922 
L 4.86 12.016077 
L 8.1 10.261523 
L 11.34 8.256322 
L 14.58 2.658462 
L 17.82 5.666271 
L 21.06 12.663593 
L 24.3 16.162255 
L 27.54 10.731498 
L 30.78 11.640109 
L 34.02 10.51218 
L 37.26 15.034334 
L 40.5 19.807135 
L 43.74 20.381538 
L 46.98 18.219678 
L 50.22 17.290184 
L 53.46 13.164898 
L 56.7 12.047415 
L 59.94 11.974309 
L 63.18 14.083947 
L 66.42 12.882911 
L 69.66 10.689722 
L 72.9 10.230194 
L 76.14 9.300699 
L 79.38 7.211945 
L 82.62 8.016119 
L 85.86 10.157088 
L 89.1 12.924687 
L 92.34 13.060454 
L 95.58 11.702769 
" clip-path="url(#pa615d40d67)" style="fill: none; stroke: #2e7d5b; stroke-width: 1.1; stroke-linecap: round"/>
   </g>
   <g id="line2d_2">
    <defs>
     <path id="mf9835c483f" d="M 0 1.2 
C 0.318244 1.2 0.623496 1.07356 0.848528 0.848528 
C 1.07356 0.623496 1.2 0.318244 1.2 0 
C 1.2 -0.318244 1.07356 -0.623496 0.848528 -0.848528 
C 0.623496 -1.07356 0.318244 -1.2 0 -1.2 
C -0.318244 -1.2 -0.623496 -1.07356 -0.848528 -0.848528 
C -1.07356 -0.623496 -1.2 -0.318244 -1.2 0 
C -1.2 0.318244 -1.07356 0.623496 -0.848528 0.848528 
C -0.623496 1.07356 -0.318244 1.2 0 1.2 
z
" style="stroke: #2e7d5b"/>
    </defs>
    <g clip-path="url(#pa615d40d67)">
     <use xlink:href="#mf9835c483f" x="95.58" y="11.702769" style="fill: #2e7d5b; stroke: #2e7d5b"/>
    </g>
   </g>
  </g>
 </g>
 <defs>
  <clipPath id="pa615d40d67">
   <rect x="0" y="0" width="97.2" height="23.04"/>
  </clipPath>
 </defs>
</svg>
